<?xml version="1.0" encoding="UTF-8" standalone="no"?><!DOCTYPE svg PUBLIC "-//W3C//DTD SVG 1.1//EN" "http://www.w3.org/Graphics/SVG/1.1/DTD/svg11.dtd"><svg width="100%" height="100%" viewBox="0 0 128 128" version="1.1" xmlns="http://www.w3.org/2000/svg" xmlns:xlink="http://www.w3.org/1999/xlink" xml:space="preserve" xmlns:serif="http://www.serif.com/" style="fill-rule:evenodd;clip-rule:evenodd;stroke-linejoin:round;stroke-miterlimit:1.41421;"><g id="Calque2"><path d="M60.109,37.571l-22.554,0l0,52.886l22.554,0l0,15.527l-38.109,0l0,-83.968l38.109,0l0,15.555Zm45.891,68.413l-38.113,0l0,-15.527l10.891,0l0,3.889l15.552,0l0,-15.552l-3.889,0l0,-10.891l15.559,0l0,38.081Zm0,-45.859l-15.559,0l0,-10.891l3.889,0l0,-15.552l-15.552,0l0,3.889l-10.891,0l0,-15.555l38.113,0l0,38.109Z"/><path d="M45.332,45.348l37.332,0l0,37.332l-37.332,0l0,-37.332Zm27.221,14.017l0,-0.017c0,-4.722 -3.833,-8.556 -8.555,-8.556c-4.722,0 -8.555,3.834 -8.555,8.556l0,0.017l-2.333,0l0,18.648l21.777,0l0,-18.648l-2.334,0Zm-14.777,0l0,-0.017c0,-3.434 2.788,-6.222 6.222,-6.222c3.434,0 6.222,2.788 6.222,6.222l0,0.017l-12.444,0Z"/></g></svg>