<?xml version="1.0" encoding="UTF-8" standalone="no"?>
<!DOCTYPE svg PUBLIC "-//W3C//DTD SVG 1.1//EN" "http://www.w3.org/Graphics/SVG/1.1/DTD/svg11.dtd">
<svg width="100%" height="100%" viewBox="0 0 24 24" version="1.1" xmlns="http://www.w3.org/2000/svg" xmlns:xlink="http://www.w3.org/1999/xlink" xml:space="preserve" xmlns:serif="http://www.serif.com/" style="fill-rule:evenodd;clip-rule:evenodd;stroke-linejoin:round;stroke-miterlimit:2;">
    <path d="M0,15L0,6L1.5,4.5L9,4.5L10.75,6L10.75,13.25L18,13.25L19.5,15L19.5,22.5L18,24L10.5,24L9,24L1.5,24L0,22.5L0,15ZM8.75,13.25L8.75,6.5L2,6.5L2,13.25L8.75,13.25ZM8.75,15L2,15L2,22L8.75,22L8.75,15ZM10.75,22L17.5,22L17.5,15L10.75,15L10.75,22Z" style="fill:white;"/>
    <g id="lock" transform="matrix(0.766652,0,0,0.766652,18.8468,5.37376)">
        <g transform="matrix(1,0,0,1,-8,-8)">
            <path d="M13,7L12,7L12,5C12,3.939 11.579,2.922 10.828,2.172C10.078,1.421 9.061,1 8,1C6.939,1 5.922,1.421 5.172,2.172C4.421,2.922 4,3.939 4,5L4,7L3,7L2,8L2,14L3,15L13,15L14,14L14,8L13,7ZM5.325,5C5.325,4.204 5.316,3.685 5.879,3.123C6.441,2.56 7.204,2.244 8,2.244C8.796,2.244 9.559,2.56 10.121,3.123C10.684,3.685 10.695,4.204 10.695,5L10.695,7L5.325,7L5.325,5ZM12.6,13.6L3.4,13.6L3.42,8.3L12.62,8.3L12.6,13.6Z" style="fill:white;fill-rule:nonzero;"/>
        </g>
    </g>
</svg>
