<?xml version="1.0" encoding="UTF-8" standalone="no"?><!DOCTYPE svg PUBLIC "-//W3C//DTD SVG 1.1//EN" "http://www.w3.org/Graphics/SVG/1.1/DTD/svg11.dtd"><svg width="100%" height="100%" viewBox="0 0 256 256" version="1.1" xmlns="http://www.w3.org/2000/svg" xmlns:xlink="http://www.w3.org/1999/xlink" xml:space="preserve" xmlns:serif="http://www.serif.com/" style="fill-rule:evenodd;clip-rule:evenodd;stroke-linejoin:round;stroke-miterlimit:2;"><path d="M144,16l16,-16l80,0l16,16l0,80l-16,16l-80,0l-16,-16l0,-80Zm16,0l0,80l80,0l0,-80l-80,0Zm-160,144l0,-96l16,-16l80,0l16,16l0,80l80,0l16,16l0,80l-16,16l-80,0l-16,0l-80,0l-16,-16l0,-80Zm96,-16l0,-80l-80,0l0,80l80,0Zm0,16l-80,0l0,80l80,0l0,-80Zm16,80l80,0l0,-80l-80,0l0,80Z" style="fill:#fff;"/><path d="M209,47l0,6l-18,0l0,-6c0,-4.971 4.029,-9 9,-9c4.971,0 9,4.029 9,9Zm-21,6l0,-6c0,-6.627 5.373,-12 12,-12c6.627,0 12,5.373 12,12l0,6l3,0l3,3l0,18l-3,3l-30,0l-3,-3l0,-18l3,-3l3,0Zm-3,21l0,-18l30,0l0,18l-30,0Z" style="fill:#fff;"/></svg>